<svg width="379" height="95" viewBox="0 0 379 95" fill="none" xmlns="http://www.w3.org/2000/svg">
<g clip-path="url(#clip0_10_21)">
<path d="M25.0107 21.014L14.5114 47.4176L13.775 59.1923L6.70128 60.0799L7.40153 48.3096L0 24.1521L8.08428 23.1378L11.6892 36.9236L17.0348 22.0148L25.0107 21.014Z" fill="white"/>
<path d="M37.2262 56.6151C35.0848 56.8837 33.1571 56.4823 31.4431 55.4109C29.729 54.3396 28.3564 52.7039 27.3253 50.5037C26.2939 48.3035 25.6867 45.7024 25.5036 42.7004C25.2404 38.3874 25.6324 34.4789 26.6793 30.9748C27.7482 27.4332 29.3568 24.5889 31.5048 22.4419C33.6767 20.2919 36.2305 19.0327 39.1658 18.6644C41.3553 18.3897 43.3071 18.7881 45.0211 19.8595C46.757 20.8934 48.1406 22.5104 49.1719 24.7105C50.2011 26.8763 50.8072 29.46 50.9903 32.462C51.2513 36.7406 50.8474 40.6506 49.7785 44.1922C48.7096 47.7338 47.0902 50.5968 44.9202 52.7813C42.7502 54.9659 40.1855 56.2439 37.2262 56.6151ZM37.7341 47.0593C39.1537 46.8811 40.3602 46.1909 41.3537 44.9885C42.3711 43.7829 43.1028 42.2656 43.5489 40.4363C44.0168 38.5696 44.1876 36.6012 44.0615 34.5309C43.9266 32.3226 43.4014 30.6672 42.4856 29.5652C41.5917 28.4257 40.375 27.9526 38.8351 28.1457C37.4155 28.3238 36.197 29.0157 35.1796 30.2212C34.1601 31.3923 33.4152 32.8938 32.9451 34.7261C32.4749 36.5582 32.3041 38.5268 32.4326 40.6316C32.5651 42.8054 33.0915 44.4779 34.0114 45.649C34.9294 46.7854 36.1702 47.2557 37.7341 47.0593Z" fill="white"/>
<path d="M62.5191 16.308L61.248 37.7984C61.2137 38.4287 61.2134 39.0196 61.247 39.5718C61.3312 40.9519 61.6492 41.99 62.2008 42.6857C62.7763 43.3785 63.6055 43.6568 64.6882 43.521C65.9875 43.358 67.0016 42.6918 67.7302 41.5226C68.459 40.3532 68.8848 38.7873 69.0075 36.8249L70.3145 15.3299L77.3883 14.4424L76.0812 35.9373C75.8827 39.4393 75.2294 42.4418 74.1214 44.945C73.0134 47.4485 71.5929 49.3998 69.86 50.7994C68.125 52.1645 66.1867 52.9815 64.0454 53.2501C61.2784 53.5974 58.9896 52.8414 57.1791 50.9825C55.3927 49.1203 54.3816 46.257 54.1458 42.3926C54.07 41.1502 54.0795 39.9148 54.1742 38.6859L55.4813 17.191L62.5191 16.308Z" fill="white"/>
<path d="M100.447 11.5492L99.9292 19.7502L93.1802 20.597L91.4129 49.4513L84.3031 50.3433L86.0704 21.489L79.3575 22.3313L79.8755 14.1303L100.447 11.5492Z" fill="white"/>
<path d="M125.837 8.36353L123.588 45.4143L116.478 46.3063L117.389 31.4324L108.8 32.5102L107.889 47.3841L100.779 48.2762L103.064 11.2208L110.138 10.3333L109.282 24.3138L117.907 23.2315L118.764 9.25106L125.837 8.36353Z" fill="white"/>
<path d="M55.0178 94.948C53.7005 95.1133 52.5046 94.8852 51.4303 94.2637C50.374 93.64 49.5243 92.6775 48.8811 91.3762C48.2382 90.0747 47.8605 88.5053 47.7484 86.668C47.5968 84.1835 47.8656 81.8812 48.5545 79.7605C49.2615 77.638 50.302 75.9166 51.6761 74.5968C53.0503 73.277 54.6306 72.5052 56.417 72.281C57.7343 72.1157 58.9212 72.3448 59.9775 72.9685C61.0518 73.5901 61.9114 74.5643 62.556 75.8917C63.2172 77.1908 63.6037 78.759 63.7158 80.5965C63.869 83.1067 63.5921 85.4233 62.8851 87.5458C62.1767 89.6427 61.1353 91.351 59.7611 92.6708C58.3853 93.9647 56.8042 94.7238 55.0178 94.948ZM55.4296 88.2858C56.0611 88.2065 56.6032 87.8517 57.0557 87.2211C57.5263 86.5884 57.8602 85.8033 58.0575 84.8658C58.273 83.9263 58.3515 82.9775 58.2931 82.0201C58.2268 80.9331 57.9778 80.1299 57.5461 79.6104C57.1323 79.0887 56.6188 78.8661 56.0052 78.9431C55.3556 79.0248 54.8045 79.3805 54.352 80.0111C53.9176 80.6393 53.5927 81.4233 53.3773 82.3631C53.1799 83.3005 53.1112 84.2609 53.1712 85.2444C53.2375 86.3312 53.4775 87.1356 53.8912 87.6574C54.3033 88.1533 54.816 88.3628 55.4296 88.2858Z" fill="white"/>
<path d="M74.799 67.9014C74.6531 67.8936 74.4628 67.9045 74.2282 67.934C73.6328 68.0088 73.1934 68.2594 72.9104 68.6861C72.6257 69.0868 72.4364 69.7105 72.3425 70.5567L74.7245 70.2577L74.3256 76.6837L71.9437 76.9825L70.9914 92.6698L65.659 93.3389L66.6113 77.6515L64.9601 77.8586L65.3591 71.4328L67.0101 71.2257L67.0254 71.0281C67.2159 68.1879 67.9247 65.9478 69.1521 64.3073C70.3778 62.641 72.0553 61.6744 74.1845 61.4072C74.6177 61.3529 74.9524 61.3239 75.1885 61.3203L74.799 67.9014Z" fill="white"/>
<path d="M87.3633 82.4016C87.3533 82.5332 87.3536 82.6897 87.3648 82.8709C87.39 83.2849 87.4901 83.5853 87.6652 83.772C87.8567 83.9304 88.151 83.9848 88.5479 83.9349L90.0908 83.7414L89.6742 90.3261L87.3464 90.6179C84.0442 91.0324 82.2714 89.2469 82.0283 85.2616C81.9872 84.5885 81.9948 83.8183 82.0509 82.9507L82.506 75.6573L80.6384 75.8918L81.0373 69.4657L82.905 69.2315L83.2327 63.8707L88.5649 63.2017L88.2375 68.5625L90.9713 68.2193L90.5723 74.6454L87.8384 74.9883L87.3633 82.4016Z" fill="white"/>
<path d="M103.435 66.4602C104.915 66.2744 106.107 66.7376 107.011 67.8498C107.915 68.962 108.434 70.605 108.566 72.7788C108.612 73.5293 108.606 74.3254 108.548 75.1671L107.753 88.0577L102.447 88.7234L103.169 76.8591C103.2 76.4639 103.205 76.1112 103.187 75.8008C103.13 74.8691 102.896 74.1682 102.486 73.6982C102.093 73.2258 101.563 73.0315 100.895 73.1154C100.155 73.2082 99.5436 73.611 99.0598 74.3235C98.576 75.0363 98.2785 75.9732 98.1676 77.1346L97.4129 89.3549L92.0804 90.024L93.8741 60.8535L99.2063 60.1844L98.5746 70.3946C99.1102 69.3365 99.7928 68.4556 100.623 67.7517C101.451 67.0218 102.388 66.5913 103.435 66.4602Z" fill="white"/>
<path d="M118.874 64.4447C120.859 64.1955 122.475 64.762 123.723 66.144C124.989 67.5236 125.703 69.5333 125.864 72.1729C125.918 73.0528 125.92 73.8349 125.871 74.5192C125.813 75.3609 125.741 75.9696 125.655 76.3455L115.613 77.6055C115.604 77.7629 115.609 77.9971 115.628 78.3075C115.688 79.291 115.895 79.9952 116.248 80.4203C116.619 80.8431 117.085 81.0193 117.644 80.9492C118.528 80.8383 119.197 80.1807 119.651 78.9763L125.281 78.27C124.958 79.823 124.417 81.2468 123.66 82.5414C122.919 83.8078 122.01 84.8476 120.932 85.6608C119.872 86.4718 118.72 86.9554 117.475 87.1117C115.49 87.3608 113.863 86.7825 112.595 85.377C111.328 83.9712 110.611 81.9099 110.445 79.1925C110.398 78.4163 110.402 77.5943 110.459 76.7267C110.608 74.413 111.057 72.375 111.804 70.6123C112.567 68.8215 113.553 67.3939 114.761 66.3297C115.987 65.2631 117.358 64.6349 118.874 64.4447ZM120.547 73.5442C120.561 73.1773 120.565 72.9422 120.559 72.8386C120.508 72.0105 120.29 71.4122 119.904 71.0434C119.516 70.6486 119.033 70.4876 118.456 70.56C117.788 70.6439 117.227 70.988 116.773 71.5925C116.319 72.1971 116.007 73.0445 115.837 74.1351L120.547 73.5442Z" fill="white"/>
<path d="M171.313 25.9193L170.327 42.1064L152.769 44.3094L152.237 53.3206L164.868 51.7356L163.897 67.0997L151.265 68.6845L149.772 93.2408L135.75 95L139.733 29.8815L171.313 25.9193Z" fill="white"/>
<path d="M189.767 23.6039L187.551 60.2984C187.484 61.2805 187.48 62.2847 187.544 63.3114C187.669 65.3643 188.146 66.9473 188.978 68.0597C189.807 69.1121 191.042 69.5351 192.685 69.3289C194.704 69.0755 196.253 68.0293 197.329 66.1906C198.401 64.2915 199.036 61.8389 199.234 58.8326L201.451 22.1379L215.41 20.3866L213.193 57.0813C212.817 63.4563 211.625 68.9302 209.613 73.5025C207.643 78.0699 205.08 81.6162 201.925 84.1418C198.811 86.6619 195.297 88.1677 191.38 88.659C186.371 89.2877 182.256 87.9178 179.039 84.5489C175.817 81.1198 173.992 75.9032 173.566 68.8986C173.429 66.6642 173.438 64.3813 173.592 62.0498L175.808 25.3551L189.767 23.6039Z" fill="white"/>
<path d="M256.573 15.2218L255.587 31.4089L243.713 32.8987L240.716 81.8301L226.695 83.5893L229.692 34.6579L217.945 36.1318L218.931 19.9447L256.573 15.2218Z" fill="white"/>
<path d="M274.081 13.0252L271.864 49.7197C271.797 50.7018 271.796 51.706 271.858 52.7327C271.983 54.7856 272.462 56.3686 273.294 57.481C274.12 58.5331 275.356 58.9564 276.998 58.7502C279.02 58.4968 280.567 57.4506 281.643 55.6119C282.716 53.7128 283.351 51.2602 283.549 48.2537L285.766 11.5591L299.723 9.80786L297.507 46.5026C297.133 52.8775 295.938 58.3512 293.927 62.9238C291.956 67.4912 289.394 71.0375 286.239 73.5631C283.126 76.0832 279.61 77.5889 275.695 78.0803C270.685 78.709 266.57 77.3391 263.353 73.9702C260.13 70.5411 258.306 65.3242 257.879 58.3199C257.743 56.0855 257.751 53.8026 257.907 51.4711L260.124 14.7765L274.081 13.0252Z" fill="white"/>
<path d="M326.613 6.43402C331.413 5.83177 335.149 6.91458 337.822 9.68247C340.493 12.4504 341.986 16.4007 342.299 21.5333C342.391 23.0429 342.39 24.4122 342.296 25.641C342.014 30.0573 340.943 34.0554 339.082 37.6355C337.217 41.155 334.687 43.8454 331.491 45.7067L339.684 69.413L324.273 71.3464L317.248 49.0454L315.809 72.4083L301.789 74.1675L305.771 9.04906L326.613 6.43402ZM318.073 35.4341L323.63 34.7368C324.977 34.5677 326.004 34.0129 326.711 33.0724C327.456 32.0663 327.897 30.6114 328.035 28.7078C328.06 28.4005 328.057 28.0055 328.027 27.5225C327.947 26.1939 327.589 25.2045 326.956 24.5537C326.317 23.8427 325.43 23.5585 324.294 23.7012L318.736 24.3986L318.073 35.4341Z" fill="white"/>
<path d="M361.118 18.1682L360.657 26.2578L374.552 24.5143L373.579 39.8784L359.684 41.6216L359.1 50.8219L374.89 48.8409L373.911 65.1185L344.099 68.8589L348.083 3.74032L377.892 0L376.908 16.1871L361.118 18.1682Z" fill="white"/>
</g>
<defs>
<clipPath id="clip0_10_21">
<rect width="379" height="95" fill="white"/>
</clipPath>
</defs>
</svg>
